:SAMPLES-PER-SECOND 30
:FULLY-SPECIFIED
:DEGREES
498
root  0.0247561 34.0308 20.9697 3.97828 52.7422 -2.26636
LeftUpLeg  -9.75308 2.78496 7.95881
LeftLeg  12.3943 -1.70282 -0.262344
LeftFoot  1.44037 -0.00122995 -0.0994828
LeftToes  -24.3267 1.92152e-006 4.03786e-008
Spine  1.92901 1.67219 1.66568
Spine1  3.62949 3.25627 3.3743
RightShoulder  0.112477 5.56488 8.40569
RightArm  -34.6487 -17.687 68.6725
RightForeArm  33.3562 13.886 2.49172
RightHand  1.26952 -13.0928 -10.6538
LeftShoulder1  0.0469552 1.15136 -9.94955
LeftArm  -12.2431 12.8848 -73.3851
LeftForeArm  26.5716 -15.8369 -2.86192
LeftHand  0.181512 5.53176 3.41119
HEad  -12.0846 28.3794 -6.65581
RightUpLeg  -7.85823 -10.6053 -1.2571
RightLeg  11.7624 -13.1251 -1.84102
RightFoot  -0.605873 -0.00108422 0.17269
RightToes  -29.5128 -0.143974 -0.25206
499
root  0.0196889 34.0333 20.948 3.94986 52.4669 -2.27779
LeftUpLeg  -9.70336 2.92488 7.94165
LeftLeg  12.4092 -1.58415 -0.24459
LeftFoot  1.408 -0.00151884 -0.0949933
LeftToes  -24.2343 1.92152e-006 4.03786e-008
Spine  1.9049 1.65389 1.67569
Spine1  3.58072 3.21777 3.39504
RightShoulder  0.111798 5.57619 8.34106
RightArm  -34.7213 -17.7289 68.6937
RightForeArm  33.3437 14.0189 2.51656
RightHand  1.263 -13.1307 -10.5658
LeftShoulder1  0.0469552 1.17705 -9.96276
LeftArm  -12.1676 12.772 -73.3311
LeftForeArm  26.5708 -15.8476 -2.86395
LeftHand  0.179882 5.53139 3.30192
HEad  -11.8787 28.6946 -6.61069
RightUpLeg  -7.8592 -10.447 -1.27001
RightLeg  11.6657 -13.0183 -1.80413
RightFoot  -0.522475 -0.00136248 0.151483
RightToes  -29.4908 -0.143924 -0.251999
500
root  0.0131875 34.0375 20.9213 3.9029 52.133 -2.28871
LeftUpLeg  -9.60455 3.04824 7.92377
LeftLeg  12.3707 -1.39899 -0.215211
LeftFoot  1.40713 -0.00190232 -0.0890337
LeftToes  -24.2056 1.92152e-006 4.03786e-008
Spine  1.88075 1.64483 1.67827
Spine1  3.53306 3.20011 3.4008
RightShoulder  0.110901 5.60298 8.20687
RightArm  -34.6842 -17.7143 68.8579
RightForeArm  33.2508 14.186 2.54789
RightHand  1.25527 -13.0887 -10.5342
LeftShoulder1  0.0469552 1.16944 -9.97382
LeftArm  -12.0345 12.7125 -73.2276
LeftForeArm  26.5277 -15.9003 -2.87399
LeftHand  0.180501 5.52717 3.36382
HEad  -11.6363 29.029 -6.53997
RightUpLeg  -7.84453 -10.3293 -1.29057
RightLeg  11.5403 -12.8214 -1.749
RightFoot  -0.407782 -0.00141732 0.12296
RightToes  -29.5149 -0.143866 -0.251931
501
root  0.00507961 34.0431 20.8885 3.84844 51.7501 -2.27682
LeftUpLeg  -9.5009 3.17805 7.8841
LeftLeg  12.3793 -1.18333 -0.182443
LeftFoot  1.39844 -0.00238295 -0.0815645
LeftToes  -24.1225 1.92152e-006 4.03786e-008
Spine  1.87456 1.64694 1.67695
Spine1  3.52222 3.20676 3.3982
RightShoulder  0.108857 5.61952 8.08423
RightArm  -34.4946 -17.6019 69.0505
RightForeArm  33.1025 14.4066 2.58936
RightHand  1.23224 -13.0302 -10.3836
LeftShoulder1  0.0469552 1.1472 -9.9884
LeftArm  -11.845 12.6631 -73.0979
LeftForeArm  26.4785 -16.0041 -2.89378
LeftHand  0.179345 5.50173 3.26402
HEad  -11.4833 29.3767 -6.49589
RightUpLeg  -7.81091 -10.2047 -1.33783
RightLeg  11.3991 -12.5676 -1.68372
RightFoot  -0.281613 -0.00149908 0.0926572
RightToes  -29.5307 -0.14379 -0.251845
502
root  -0.00446292 34.052 20.8537 3.81778 51.3401 -2.25954
LeftUpLeg  -9.37034 3.32882 7.83845
LeftLeg  12.2922 -0.9471 -0.14483
LeftFoot  1.43585 -0.00287794 -0.073872
LeftToes  -24.0666 1.92152e-006 4.03786e-008
Spine  1.86838 1.66047 1.66714
Spine1  3.51315 3.23748 3.37945
RightShoulder  0.105982 5.64002 7.95345
RightArm  -34.212 -17.4601 69.3054
RightForeArm  32.9036 14.6807 2.641
RightHand  1.21969 -13.0018 -10.2979
LeftShoulder1  0.0469552 1.10262 -9.98576
LeftArm  -11.685 12.6125 -72.9579
LeftForeArm  26.3985 -16.0843 -2.9091
LeftHand  0.178642 5.46894 3.18946
HEad  -11.4022 29.7195 -6.40858
RightUpLeg  -7.76061 -10.1052 -1.38191
RightLeg  11.1573 -12.2787 -1.59337
RightFoot  -0.092852 -0.000799161 0.0496678
RightToes  -29.5872 -0.143683 -0.25173
